<svg xmlns="http://www.w3.org/2000/svg" viewBox="0 0 64 64" role="img" aria-label="WhatsApp">
  <circle cx="32" cy="32" r="30" fill="#25D366"/>
  <path fill="#fff" d="M19.1 47.4 21 40.5a20 20 0 1 1 7.7 6.3l-9.6.6Zm10.1-4.2.6.3a16 16 0 1 0-5.1-3.9l.4.6-1.1 3.7 5.2-.7Z"/>
  <path fill="#fff" d="M41.2 35.7c-.5-.3-3-1.5-3.5-1.7-.5-.2-.8-.3-1.2.3-.4.5-1.4 1.7-1.7 2-.3.4-.6.4-1.1.1-.5-.3-2.1-.8-4-2.5-1.5-1.3-2.5-3-2.8-3.5-.3-.5 0-.8.2-1.1.2-.2.5-.6.8-.9.3-.3.4-.5.5-.9.2-.4.1-.7 0-1-.1-.3-1.2-2.9-1.6-3.9-.4-1-.8-.8-1.2-.8h-1c-.4 0-1 .1-1.5.7-.5.5-2 1.9-2 4.7s2 5.4 2.3 5.8c.3.4 4 6.1 9.7 8.5 1.4.6 2.4.9 3.3 1.2 1.4.4 2.6.4 3.6.2 1.1-.2 3-1.2 3.4-2.4.4-1.2.4-2.2.3-2.4-.2-.2-.5-.3-1-.6Z"/>
</svg>
